<mxfile host="65bd71144e">
    <diagram id="d1753266723993" name="Page-1">
        <mxGraphModel dx="1685" dy="1613" grid="1" gridSize="10" guides="1" tooltips="1" connect="1" arrows="1" fold="1" page="1" pageScale="1" pageWidth="850" pageHeight="1100" math="0" shadow="0">
            <root>
                <mxCell id="0"/>
                <mxCell id="1" parent="0"/>
                <mxCell id="table_ident" style="shape=table;container=1;recursiveResize=0;strokeColor=#000;" parent="1" vertex="1">
                    <mxGeometry x="150" y="30" width="200" height="30" as="geometry"/>
                </mxCell>
                <mxCell id="r0" style="shape=tableRow;startSize=0;fillColor=none;" parent="table_ident" vertex="1">
                    <mxGeometry width="200" height="30" as="geometry"/>
                </mxCell>
                <mxCell id="c1" value="&lt;b&gt;ident : String&lt;/b&gt;" style="html=1;verticalAlign=middle;whiteSpace=wrap;overflow=visible;align=center;fillColor=#ADD8E6;strokeColor=none" parent="r0" vertex="1">
                    <mxGeometry width="200" height="30" as="geometry"/>
                </mxCell>
                <mxCell id="table_isStarted" style="shape=table;container=1;recursiveResize=0;strokeColor=#000;" parent="1" vertex="1">
                    <mxGeometry x="380" y="-10" width="200" height="30" as="geometry"/>
                </mxCell>
                <mxCell id="r2" style="shape=tableRow;startSize=0;fillColor=none;" parent="table_isStarted" vertex="1">
                    <mxGeometry width="200" height="30" as="geometry"/>
                </mxCell>
                <mxCell id="c3" value="&lt;b&gt;isStarted : Boolean&lt;/b&gt;" style="html=1;verticalAlign=middle;whiteSpace=wrap;overflow=visible;align=center;fillColor=#ADD8E6;strokeColor=none" parent="r2" vertex="1">
                    <mxGeometry width="200" height="30" as="geometry"/>
                </mxCell>
                <mxCell id="table_temperature" style="shape=table;container=1;recursiveResize=0;strokeColor=#000;" parent="1" vertex="1">
                    <mxGeometry x="430" y="260" width="200" height="30" as="geometry"/>
                </mxCell>
                <mxCell id="r4" style="shape=tableRow;startSize=0;fillColor=none;" parent="table_temperature" vertex="1">
                    <mxGeometry width="200" height="30" as="geometry"/>
                </mxCell>
                <mxCell id="c5" value="&lt;b&gt;temperature : Real&lt;/b&gt;" style="html=1;verticalAlign=middle;whiteSpace=wrap;overflow=visible;align=center;fillColor=#ADD8E6;strokeColor=none" parent="r4" vertex="1">
                    <mxGeometry width="200" height="30" as="geometry"/>
                </mxCell>
                <mxCell id="table_R1" style="shape=table;container=1;recursiveResize=0;strokeColor=#000;" parent="1" vertex="1">
                    <mxGeometry x="-240" y="190" width="200" height="30" as="geometry"/>
                </mxCell>
                <mxCell id="r6" style="shape=tableRow;startSize=0;fillColor=none;" parent="table_R1" vertex="1">
                    <mxGeometry width="200" height="30" as="geometry"/>
                </mxCell>
                <mxCell id="c7" value="&lt;b&gt;R1 : Requirement&lt;/b&gt;" style="html=1;verticalAlign=middle;whiteSpace=wrap;overflow=visible;align=center;fillColor=#ADD8E6;strokeColor=none" parent="r6" vertex="1">
                    <mxGeometry width="200" height="30" as="geometry"/>
                </mxCell>
                <mxCell id="table_R2" style="shape=table;container=1;recursiveResize=0;strokeColor=#000;" parent="1" vertex="1">
                    <mxGeometry x="60" y="190" width="200" height="30" as="geometry"/>
                </mxCell>
                <mxCell id="r8" style="shape=tableRow;startSize=0;fillColor=none;" parent="table_R2" vertex="1">
                    <mxGeometry width="200" height="30" as="geometry"/>
                </mxCell>
                <mxCell id="table_R3" style="shape=table;container=1;recursiveResize=0;strokeColor=#000;" parent="1" vertex="1">
                    <mxGeometry x="600" y="70" width="200" height="30" as="geometry"/>
                </mxCell>
                <mxCell id="r10" style="shape=tableRow;startSize=0;fillColor=none;" parent="table_R3" vertex="1">
                    <mxGeometry width="200" height="30" as="geometry"/>
                </mxCell>
                <mxCell id="c11" value="&lt;b&gt;R3 : Requirement&lt;/b&gt;" style="html=1;verticalAlign=middle;whiteSpace=wrap;overflow=visible;align=center;fillColor=#ADD8E6;strokeColor=none" parent="r10" vertex="1">
                    <mxGeometry width="200" height="30" as="geometry"/>
                </mxCell>
                <mxCell id="table_R4" style="shape=table;container=1;recursiveResize=0;strokeColor=#000;" parent="1" vertex="1">
                    <mxGeometry x="-70" y="270" width="200" height="30" as="geometry"/>
                </mxCell>
                <mxCell id="r12" style="shape=tableRow;startSize=0;fillColor=none;" parent="table_R4" vertex="1">
                    <mxGeometry width="200" height="30" as="geometry"/>
                </mxCell>
                <mxCell id="c13" value="&lt;b&gt;R4 : Requirement&lt;/b&gt;" style="html=1;verticalAlign=middle;whiteSpace=wrap;overflow=visible;align=center;fillColor=#ADD8E6;strokeColor=none" parent="r12" vertex="1">
                    <mxGeometry width="200" height="30" as="geometry"/>
                </mxCell>
                <mxCell id="table_pumps" style="shape=table;container=1;recursiveResize=0;strokeColor=#000;" parent="1" vertex="1">
                    <mxGeometry x="810" y="190" width="200" height="30" as="geometry"/>
                </mxCell>
                <mxCell id="r14" style="shape=tableRow;startSize=0;fillColor=none;" parent="table_pumps" vertex="1">
                    <mxGeometry width="200" height="30" as="geometry"/>
                </mxCell>
                <mxCell id="c15" value="&lt;b&gt;pumps : Pump{}&lt;/b&gt;" style="html=1;verticalAlign=middle;whiteSpace=wrap;overflow=visible;align=center;fillColor=#ADD8E6;strokeColor=none" parent="r14" vertex="1">
                    <mxGeometry width="200" height="30" as="geometry"/>
                </mxCell>
                <mxCell id="table_inOperation" style="shape=table;container=1;recursiveResize=0;strokeColor=#000;" parent="1" vertex="1">
                    <mxGeometry x="-300" y="60" width="200" height="30" as="geometry"/>
                </mxCell>
                <mxCell id="r16" style="shape=tableRow;startSize=0;fillColor=none;" parent="table_inOperation" vertex="1">
                    <mxGeometry width="200" height="30" as="geometry"/>
                </mxCell>
                <mxCell id="c17" value="&lt;b&gt;inOperation : Boolean&lt;/b&gt;" style="html=1;verticalAlign=middle;whiteSpace=wrap;overflow=visible;align=center;fillColor=#ADD8E6;strokeColor=none" parent="r16" vertex="1">
                    <mxGeometry width="200" height="30" as="geometry"/>
                </mxCell>
                <mxCell id="table_PO1" style="shape=table;container=1;recursiveResize=0;strokeColor=#000;" parent="1" vertex="1">
                    <mxGeometry x="310" y="300" width="200" height="30" as="geometry"/>
                </mxCell>
                <mxCell id="r18" style="shape=tableRow;startSize=0;fillColor=none;" parent="table_PO1" vertex="1">
                    <mxGeometry width="200" height="30" as="geometry"/>
                </mxCell>
                <mxCell id="c19" value="&lt;b&gt;PO1 : Pump&lt;/b&gt;" style="html=1;verticalAlign=middle;whiteSpace=wrap;overflow=visible;align=center;fillColor=#ADD8E6;strokeColor=none" parent="r18" vertex="1">
                    <mxGeometry width="200" height="30" as="geometry"/>
                </mxCell>
                <mxCell id="table_PO2" style="shape=table;container=1;recursiveResize=0;strokeColor=#000;" parent="1" vertex="1">
                    <mxGeometry x="560" y="300" width="200" height="30" as="geometry"/>
                </mxCell>
                <mxCell id="r20" style="shape=tableRow;startSize=0;fillColor=none;" parent="table_PO2" vertex="1">
                    <mxGeometry width="200" height="30" as="geometry"/>
                </mxCell>
                <mxCell id="c21" value="&lt;b&gt;PO2 : Pump&lt;/b&gt;" style="html=1;verticalAlign=middle;whiteSpace=wrap;overflow=visible;align=center;fillColor=#ADD8E6;strokeColor=none" parent="r20" vertex="1">
                    <mxGeometry width="200" height="30" as="geometry"/>
                </mxCell>
                <mxCell id="table_PO3" style="shape=table;container=1;recursiveResize=0;strokeColor=#000;" parent="1" vertex="1">
                    <mxGeometry x="810" y="300" width="200" height="30" as="geometry"/>
                </mxCell>
                <mxCell id="r22" style="shape=tableRow;startSize=0;fillColor=none;" parent="table_PO3" vertex="1">
                    <mxGeometry width="200" height="30" as="geometry"/>
                </mxCell>
                <mxCell id="c23" value="&lt;b&gt;PO3 : Pump&lt;/b&gt;" style="html=1;verticalAlign=middle;whiteSpace=wrap;overflow=visible;align=center;fillColor=#ADD8E6;strokeColor=none" parent="r22" vertex="1">
                    <mxGeometry width="200" height="30" as="geometry"/>
                </mxCell>
                <mxCell id="table_system" style="shape=table;container=1;recursiveResize=0;strokeColor=#000;" parent="1" vertex="1">
                    <mxGeometry x="-130" y="490" width="200" height="30" as="geometry"/>
                </mxCell>
                <mxCell id="r24" style="shape=tableRow;startSize=0;fillColor=none;" parent="table_system" vertex="1">
                    <mxGeometry width="200" height="30" as="geometry"/>
                </mxCell>
                <mxCell id="c25" value="&lt;b&gt;system : System&lt;/b&gt;" style="html=1;verticalAlign=middle;whiteSpace=wrap;overflow=visible;align=center;fillColor=#ADD8E6;strokeColor=none" parent="r24" vertex="1">
                    <mxGeometry width="200" height="30" as="geometry"/>
                </mxCell>
                <mxCell id="edge0" style="edgeStyle=orthogonalEdgeStyle;rounded=0;strokeColor=#000;endArrow=classic;endFill=0;" parent="1" source="table_R1" target="table_system" edge="1">
                    <mxGeometry relative="1" as="geometry"/>
                </mxCell>
                <mxCell id="edge1" style="edgeStyle=orthogonalEdgeStyle;rounded=0;strokeColor=#000;endArrow=classic;endFill=0;" parent="1" source="table_R1" target="table_inOperation" edge="1">
                    <mxGeometry relative="1" as="geometry"/>
                </mxCell>
                <mxCell id="edge2" style="edgeStyle=orthogonalEdgeStyle;rounded=0;strokeColor=#000;endArrow=classic;endFill=0;" parent="1" source="table_R1" edge="1">
                    <mxGeometry relative="1" as="geometry"/>
                </mxCell>
                <mxCell id="edge3" style="edgeStyle=orthogonalEdgeStyle;rounded=0;strokeColor=#000;endArrow=classic;endFill=0;" parent="1" source="table_R1" target="table_isStarted" edge="1">
                    <mxGeometry relative="1" as="geometry"/>
                </mxCell>
                <mxCell id="edge4" style="edgeStyle=orthogonalEdgeStyle;rounded=0;strokeColor=#000;endArrow=classic;endFill=0;" parent="1" source="table_R2" edge="1">
                    <mxGeometry relative="1" as="geometry"/>
                </mxCell>
                <mxCell id="edge5" style="edgeStyle=orthogonalEdgeStyle;rounded=0;strokeColor=#000;endArrow=classic;endFill=0;" parent="1" source="table_R2" target="table_isStarted" edge="1">
                    <mxGeometry relative="1" as="geometry"/>
                </mxCell>
                <mxCell id="edge6" style="edgeStyle=orthogonalEdgeStyle;rounded=0;strokeColor=#000;endArrow=classic;endFill=0;" parent="1" source="table_R2" edge="1">
                    <mxGeometry relative="1" as="geometry"/>
                </mxCell>
                <mxCell id="edge7" style="edgeStyle=orthogonalEdgeStyle;rounded=0;strokeColor=#000;endArrow=classic;endFill=0;" parent="1" source="table_R2" edge="1">
                    <mxGeometry relative="1" as="geometry"/>
                </mxCell>
                <mxCell id="edge8" style="edgeStyle=orthogonalEdgeStyle;rounded=0;strokeColor=#000;endArrow=classic;endFill=0;" parent="1" source="table_R2" target="table_isStarted" edge="1">
                    <mxGeometry relative="1" as="geometry"/>
                </mxCell>
                <mxCell id="edge9" style="edgeStyle=orthogonalEdgeStyle;rounded=0;strokeColor=#000;endArrow=classic;endFill=0;" parent="1" source="table_R3" edge="1">
                    <mxGeometry relative="1" as="geometry"/>
                </mxCell>
                <mxCell id="edge10" style="edgeStyle=orthogonalEdgeStyle;rounded=0;strokeColor=#000;endArrow=classic;endFill=0;" parent="1" source="table_R3" target="table_isStarted" edge="1">
                    <mxGeometry relative="1" as="geometry"/>
                </mxCell>
                <mxCell id="edge11" style="edgeStyle=orthogonalEdgeStyle;rounded=0;strokeColor=#000;endArrow=classic;endFill=0;" parent="1" source="table_R3" edge="1">
                    <mxGeometry relative="1" as="geometry"/>
                </mxCell>
                <mxCell id="edge12" style="edgeStyle=orthogonalEdgeStyle;rounded=0;strokeColor=#000;endArrow=classic;endFill=0;" parent="1" source="table_R3" target="table_temperature" edge="1">
                    <mxGeometry relative="1" as="geometry"/>
                </mxCell>
                <mxCell id="edge13" style="edgeStyle=orthogonalEdgeStyle;rounded=0;strokeColor=#000;endArrow=classic;endFill=0;" parent="1" source="table_R3" edge="1">
                    <mxGeometry relative="1" as="geometry"/>
                </mxCell>
                <mxCell id="edge14" style="edgeStyle=orthogonalEdgeStyle;rounded=0;strokeColor=#000;endArrow=classic;endFill=0;" parent="1" source="c9" target="table_system" edge="1">
                    <mxGeometry relative="1" as="geometry"/>
                </mxCell>
                <mxCell id="edge15" style="edgeStyle=orthogonalEdgeStyle;rounded=0;strokeColor=#000;endArrow=classic;endFill=0;" parent="1" source="table_R4" edge="1">
                    <mxGeometry relative="1" as="geometry"/>
                </mxCell>
                <mxCell id="edge16" style="edgeStyle=orthogonalEdgeStyle;rounded=0;strokeColor=#000;endArrow=classic;endFill=0;" parent="1" source="table_R4" edge="1">
                    <mxGeometry relative="1" as="geometry"/>
                </mxCell>
                <mxCell id="edge17" style="edgeStyle=orthogonalEdgeStyle;rounded=0;strokeColor=#000;endArrow=classic;endFill=0;" parent="1" source="table_R4" target="table_temperature" edge="1">
                    <mxGeometry relative="1" as="geometry"/>
                </mxCell>
                <mxCell id="edge18" style="edgeStyle=orthogonalEdgeStyle;rounded=0;strokeColor=#000;endArrow=classic;endFill=0;" parent="1" source="table_R4" edge="1">
                    <mxGeometry relative="1" as="geometry"/>
                </mxCell>
                <mxCell id="edge19" style="edgeStyle=orthogonalEdgeStyle;rounded=0;strokeColor=#000;endArrow=classic;endFill=0;" parent="1" source="table_R4" edge="1">
                    <mxGeometry relative="1" as="geometry"/>
                </mxCell>
                <mxCell id="edge20" style="edgeStyle=orthogonalEdgeStyle;rounded=0;strokeColor=#000;endArrow=classic;endFill=0;" parent="1" source="table_R4" edge="1">
                    <mxGeometry relative="1" as="geometry"/>
                </mxCell>
                <mxCell id="edge21" style="edgeStyle=orthogonalEdgeStyle;rounded=0;strokeColor=#000;endArrow=classic;endFill=0;" parent="1" source="table_R4" target="table_temperature" edge="1">
                    <mxGeometry relative="1" as="geometry"/>
                </mxCell>
                <mxCell id="edge22" style="edgeStyle=orthogonalEdgeStyle;rounded=0;strokeColor=#000;endArrow=classic;endFill=0;" parent="1" source="table_R4" edge="1">
                    <mxGeometry relative="1" as="geometry"/>
                </mxCell>
                <mxCell id="edge23" style="edgeStyle=orthogonalEdgeStyle;rounded=0;strokeColor=#000;endArrow=classic;endFill=0;" parent="1" source="table_R4" edge="1">
                    <mxGeometry relative="1" as="geometry"/>
                </mxCell>
                <mxCell id="edge24" style="edgeStyle=orthogonalEdgeStyle;rounded=0;strokeColor=#000;endArrow=classic;endFill=0;" parent="1" source="table_pumps" edge="1">
                    <mxGeometry relative="1" as="geometry"/>
                </mxCell>
                <mxCell id="edge25" style="edgeStyle=orthogonalEdgeStyle;rounded=0;strokeColor=#000;endArrow=classic;endFill=0;" parent="1" source="table_PO1" edge="1">
                    <mxGeometry relative="1" as="geometry"/>
                </mxCell>
                <mxCell id="edge26" style="edgeStyle=orthogonalEdgeStyle;rounded=0;strokeColor=#000;endArrow=classic;endFill=0;" parent="1" source="table_PO2" edge="1">
                    <mxGeometry relative="1" as="geometry"/>
                </mxCell>
                <mxCell id="edge27" style="edgeStyle=orthogonalEdgeStyle;rounded=0;strokeColor=#000;endArrow=classic;endFill=0;" parent="1" source="table_PO3" edge="1">
                    <mxGeometry relative="1" as="geometry"/>
                </mxCell>
                <mxCell id="edge28" style="edgeStyle=orthogonalEdgeStyle;rounded=0;strokeColor=#000;endArrow=classic;endFill=0;" parent="1" source="table_system" edge="1">
                    <mxGeometry relative="1" as="geometry"/>
                </mxCell>
                <mxCell id="edge29" style="edgeStyle=orthogonalEdgeStyle;rounded=0;strokeColor=#000;endArrow=classic;endFill=0;" parent="1" source="table_system" target="table_PO1" edge="1">
                    <mxGeometry relative="1" as="geometry"/>
                </mxCell>
                <mxCell id="edge30" style="edgeStyle=orthogonalEdgeStyle;rounded=0;strokeColor=#000;endArrow=classic;endFill=0;" parent="1" source="table_system" target="table_PO2" edge="1">
                    <mxGeometry relative="1" as="geometry"/>
                </mxCell>
                <mxCell id="edge31" style="edgeStyle=orthogonalEdgeStyle;rounded=0;strokeColor=#000;endArrow=classic;endFill=0;" parent="1" source="table_system" target="table_PO3" edge="1">
                    <mxGeometry relative="1" as="geometry"/>
                </mxCell>
                <mxCell id="2" value="" style="edgeStyle=orthogonalEdgeStyle;rounded=0;strokeColor=#000;endArrow=classic;endFill=0;" edge="1" parent="1" source="table_R4" target="c9">
                    <mxGeometry relative="1" as="geometry">
                        <mxPoint x="560" y="205" as="sourcePoint"/>
                        <mxPoint x="-30" y="490" as="targetPoint"/>
                    </mxGeometry>
                </mxCell>
                <mxCell id="c9" value="&lt;b&gt;R2 : Requirement&lt;/b&gt;" style="html=1;verticalAlign=middle;whiteSpace=wrap;overflow=visible;align=center;fillColor=#ADD8E6;strokeColor=none" parent="1" vertex="1">
                    <mxGeometry x="60" y="190" width="200" height="30" as="geometry"/>
                </mxCell>
            </root>
        </mxGraphModel>
    </diagram>
</mxfile>